<svg width="950" height="450" viewBox="0 0 950 450" fill="none" xmlns="http://www.w3.org/2000/svg">
<g id="HelloWorld">
<g id="icon">
<rect id="Background" x="1" y="251" width="198" height="198" fill="white" stroke="#607D8B" stroke-width="2"/>
<path id="Text" d="M72.8828 336H68.8984V319.875H50.8516V336H46.8672V301.734H50.8516V316.312H68.8984V301.734H72.8828V336ZM92.5703 336.469C88.7734 336.469 85.7734 335.312 83.5703 333C81.3828 330.688 80.2891 327.477 80.2891 323.367C80.2891 319.227 81.3047 315.938 83.3359 313.5C85.3828 311.062 88.125 309.844 91.5625 309.844C94.7812 309.844 97.3281 310.906 99.2031 313.031C101.078 315.141 102.016 317.93 102.016 321.398V323.859H84.3203C84.3984 326.875 85.1562 329.164 86.5938 330.727C88.0469 332.289 90.0859 333.07 92.7109 333.07C95.4766 333.07 98.2109 332.492 100.914 331.336V334.805C99.5391 335.398 98.2344 335.82 97 336.07C95.7812 336.336 94.3047 336.469 92.5703 336.469ZM91.5156 313.102C89.4531 313.102 87.8047 313.773 86.5703 315.117C85.3516 316.461 84.6328 318.32 84.4141 320.695H97.8438C97.8438 318.242 97.2969 316.367 96.2031 315.07C95.1094 313.758 93.5469 313.102 91.5156 313.102ZM112.562 336H108.672V299.531H112.562V336ZM124.703 336H120.812V299.531H124.703V336ZM155.125 323.133C155.125 327.32 154.07 330.594 151.961 332.953C149.852 335.297 146.938 336.469 143.219 336.469C140.922 336.469 138.883 335.93 137.102 334.852C135.32 333.773 133.945 332.227 132.977 330.211C132.008 328.195 131.523 325.836 131.523 323.133C131.523 318.945 132.57 315.688 134.664 313.359C136.758 311.016 139.664 309.844 143.383 309.844C146.977 309.844 149.828 311.039 151.938 313.43C154.062 315.82 155.125 319.055 155.125 323.133ZM135.555 323.133C135.555 326.414 136.211 328.914 137.523 330.633C138.836 332.352 140.766 333.211 143.312 333.211C145.859 333.211 147.789 332.359 149.102 330.656C150.43 328.938 151.094 326.43 151.094 323.133C151.094 319.867 150.43 317.391 149.102 315.703C147.789 314 145.844 313.148 143.266 313.148C140.719 313.148 138.797 313.984 137.5 315.656C136.203 317.328 135.555 319.82 135.555 323.133ZM67.3047 401H63.3672L56.4531 378.055C56.125 377.039 55.7578 375.758 55.3516 374.211C54.9453 372.664 54.7344 371.734 54.7188 371.422C54.375 373.484 53.8281 375.742 53.0781 378.195L46.375 401H42.4375L33.3203 366.734H37.5391L42.9531 387.898C43.7031 390.867 44.25 393.555 44.5938 395.961C45.0156 393.102 45.6406 390.305 46.4688 387.57L52.6094 366.734H56.8281L63.2734 387.758C64.0234 390.18 64.6562 392.914 65.1719 395.961C65.4688 393.742 66.0312 391.039 66.8594 387.852L72.25 366.734H76.4688L67.3047 401ZM103.422 388.133C103.422 392.32 102.367 395.594 100.258 397.953C98.1484 400.297 95.2344 401.469 91.5156 401.469C89.2188 401.469 87.1797 400.93 85.3984 399.852C83.6172 398.773 82.2422 397.227 81.2734 395.211C80.3047 393.195 79.8203 390.836 79.8203 388.133C79.8203 383.945 80.8672 380.688 82.9609 378.359C85.0547 376.016 87.9609 374.844 91.6797 374.844C95.2734 374.844 98.125 376.039 100.234 378.43C102.359 380.82 103.422 384.055 103.422 388.133ZM83.8516 388.133C83.8516 391.414 84.5078 393.914 85.8203 395.633C87.1328 397.352 89.0625 398.211 91.6094 398.211C94.1562 398.211 96.0859 397.359 97.3984 395.656C98.7266 393.938 99.3906 391.43 99.3906 388.133C99.3906 384.867 98.7266 382.391 97.3984 380.703C96.0859 379 94.1406 378.148 91.5625 378.148C89.0156 378.148 87.0938 378.984 85.7969 380.656C84.5 382.328 83.8516 384.82 83.8516 388.133ZM121.984 374.844C123.125 374.844 124.148 374.938 125.055 375.125L124.516 378.734C123.453 378.5 122.516 378.383 121.703 378.383C119.625 378.383 117.844 379.227 116.359 380.914C114.891 382.602 114.156 384.703 114.156 387.219V401H110.266V375.312H113.477L113.922 380.07H114.109C115.062 378.398 116.211 377.109 117.555 376.203C118.898 375.297 120.375 374.844 121.984 374.844ZM133.75 401H129.859V364.531H133.75V401ZM159.484 397.555H159.273C157.477 400.164 154.789 401.469 151.211 401.469C147.852 401.469 145.234 400.32 143.359 398.023C141.5 395.727 140.57 392.461 140.57 388.227C140.57 383.992 141.508 380.703 143.383 378.359C145.258 376.016 147.867 374.844 151.211 374.844C154.695 374.844 157.367 376.109 159.227 378.641H159.531L159.367 376.789L159.273 374.984V364.531H163.164V401H160L159.484 397.555ZM151.703 398.211C154.359 398.211 156.281 397.492 157.469 396.055C158.672 394.602 159.273 392.266 159.273 389.047V388.227C159.273 384.586 158.664 381.992 157.445 380.445C156.242 378.883 154.312 378.102 151.656 378.102C149.375 378.102 147.625 378.992 146.406 380.773C145.203 382.539 144.602 385.039 144.602 388.273C144.602 391.555 145.203 394.031 146.406 395.703C147.609 397.375 149.375 398.211 151.703 398.211Z" fill="#607D8B"/>
</g>
<g id="logo-dark">
<rect width="200" height="200" transform="translate(750)" fill="white" fill-opacity="0.6"/>
<rect id="Background_2" x="751" y="1" width="198" height="198" stroke="black" stroke-width="2"/>
<path id="Text_2" d="M822.883 86H818.898V69.875H800.852V86H796.867V51.7344H800.852V66.3125H818.898V51.7344H822.883V86ZM842.57 86.4688C838.773 86.4688 835.773 85.3125 833.57 83C831.383 80.6875 830.289 77.4766 830.289 73.3672C830.289 69.2266 831.305 65.9375 833.336 63.5C835.383 61.0625 838.125 59.8438 841.562 59.8438C844.781 59.8438 847.328 60.9062 849.203 63.0312C851.078 65.1406 852.016 67.9297 852.016 71.3984V73.8594H834.32C834.398 76.875 835.156 79.1641 836.594 80.7266C838.047 82.2891 840.086 83.0703 842.711 83.0703C845.477 83.0703 848.211 82.4922 850.914 81.3359V84.8047C849.539 85.3984 848.234 85.8203 847 86.0703C845.781 86.3359 844.305 86.4688 842.57 86.4688ZM841.516 63.1016C839.453 63.1016 837.805 63.7734 836.57 65.1172C835.352 66.4609 834.633 68.3203 834.414 70.6953H847.844C847.844 68.2422 847.297 66.3672 846.203 65.0703C845.109 63.7578 843.547 63.1016 841.516 63.1016ZM862.562 86H858.672V49.5312H862.562V86ZM874.703 86H870.812V49.5312H874.703V86ZM905.125 73.1328C905.125 77.3203 904.07 80.5938 901.961 82.9531C899.852 85.2969 896.938 86.4688 893.219 86.4688C890.922 86.4688 888.883 85.9297 887.102 84.8516C885.32 83.7734 883.945 82.2266 882.977 80.2109C882.008 78.1953 881.523 75.8359 881.523 73.1328C881.523 68.9453 882.57 65.6875 884.664 63.3594C886.758 61.0156 889.664 59.8438 893.383 59.8438C896.977 59.8438 899.828 61.0391 901.938 63.4297C904.062 65.8203 905.125 69.0547 905.125 73.1328ZM885.555 73.1328C885.555 76.4141 886.211 78.9141 887.523 80.6328C888.836 82.3516 890.766 83.2109 893.312 83.2109C895.859 83.2109 897.789 82.3594 899.102 80.6562C900.43 78.9375 901.094 76.4297 901.094 73.1328C901.094 69.8672 900.43 67.3906 899.102 65.7031C897.789 64 895.844 63.1484 893.266 63.1484C890.719 63.1484 888.797 63.9844 887.5 65.6562C886.203 67.3281 885.555 69.8203 885.555 73.1328ZM817.305 151H813.367L806.453 128.055C806.125 127.039 805.758 125.758 805.352 124.211C804.945 122.664 804.734 121.734 804.719 121.422C804.375 123.484 803.828 125.742 803.078 128.195L796.375 151H792.438L783.32 116.734H787.539L792.953 137.898C793.703 140.867 794.25 143.555 794.594 145.961C795.016 143.102 795.641 140.305 796.469 137.57L802.609 116.734H806.828L813.273 137.758C814.023 140.18 814.656 142.914 815.172 145.961C815.469 143.742 816.031 141.039 816.859 137.852L822.25 116.734H826.469L817.305 151ZM853.422 138.133C853.422 142.32 852.367 145.594 850.258 147.953C848.148 150.297 845.234 151.469 841.516 151.469C839.219 151.469 837.18 150.93 835.398 149.852C833.617 148.773 832.242 147.227 831.273 145.211C830.305 143.195 829.82 140.836 829.82 138.133C829.82 133.945 830.867 130.688 832.961 128.359C835.055 126.016 837.961 124.844 841.68 124.844C845.273 124.844 848.125 126.039 850.234 128.43C852.359 130.82 853.422 134.055 853.422 138.133ZM833.852 138.133C833.852 141.414 834.508 143.914 835.82 145.633C837.133 147.352 839.062 148.211 841.609 148.211C844.156 148.211 846.086 147.359 847.398 145.656C848.727 143.938 849.391 141.43 849.391 138.133C849.391 134.867 848.727 132.391 847.398 130.703C846.086 129 844.141 128.148 841.562 128.148C839.016 128.148 837.094 128.984 835.797 130.656C834.5 132.328 833.852 134.82 833.852 138.133ZM871.984 124.844C873.125 124.844 874.148 124.938 875.055 125.125L874.516 128.734C873.453 128.5 872.516 128.383 871.703 128.383C869.625 128.383 867.844 129.227 866.359 130.914C864.891 132.602 864.156 134.703 864.156 137.219V151H860.266V125.312H863.477L863.922 130.07H864.109C865.062 128.398 866.211 127.109 867.555 126.203C868.898 125.297 870.375 124.844 871.984 124.844ZM883.75 151H879.859V114.531H883.75V151ZM909.484 147.555H909.273C907.477 150.164 904.789 151.469 901.211 151.469C897.852 151.469 895.234 150.32 893.359 148.023C891.5 145.727 890.57 142.461 890.57 138.227C890.57 133.992 891.508 130.703 893.383 128.359C895.258 126.016 897.867 124.844 901.211 124.844C904.695 124.844 907.367 126.109 909.227 128.641H909.531L909.367 126.789L909.273 124.984V114.531H913.164V151H910L909.484 147.555ZM901.703 148.211C904.359 148.211 906.281 147.492 907.469 146.055C908.672 144.602 909.273 142.266 909.273 139.047V138.227C909.273 134.586 908.664 131.992 907.445 130.445C906.242 128.883 904.312 128.102 901.656 128.102C899.375 128.102 897.625 128.992 896.406 130.773C895.203 132.539 894.602 135.039 894.602 138.273C894.602 141.555 895.203 144.031 896.406 145.703C897.609 147.375 899.375 148.211 901.703 148.211Z" fill="black"/>
</g>
<g id="logo-light">
<rect width="200" height="200" transform="translate(500)" fill="black" fill-opacity="0.6"/>
<rect id="Background_3" x="501" y="1" width="198" height="198" stroke="white" stroke-width="2"/>
<path id="Text_3" d="M572.883 86H568.898V69.875H550.852V86H546.867V51.7344H550.852V66.3125H568.898V51.7344H572.883V86ZM592.57 86.4688C588.773 86.4688 585.773 85.3125 583.57 83C581.383 80.6875 580.289 77.4766 580.289 73.3672C580.289 69.2266 581.305 65.9375 583.336 63.5C585.383 61.0625 588.125 59.8438 591.562 59.8438C594.781 59.8438 597.328 60.9062 599.203 63.0312C601.078 65.1406 602.016 67.9297 602.016 71.3984V73.8594H584.32C584.398 76.875 585.156 79.1641 586.594 80.7266C588.047 82.2891 590.086 83.0703 592.711 83.0703C595.477 83.0703 598.211 82.4922 600.914 81.3359V84.8047C599.539 85.3984 598.234 85.8203 597 86.0703C595.781 86.3359 594.305 86.4688 592.57 86.4688ZM591.516 63.1016C589.453 63.1016 587.805 63.7734 586.57 65.1172C585.352 66.4609 584.633 68.3203 584.414 70.6953H597.844C597.844 68.2422 597.297 66.3672 596.203 65.0703C595.109 63.7578 593.547 63.1016 591.516 63.1016ZM612.562 86H608.672V49.5312H612.562V86ZM624.703 86H620.812V49.5312H624.703V86ZM655.125 73.1328C655.125 77.3203 654.07 80.5938 651.961 82.9531C649.852 85.2969 646.938 86.4688 643.219 86.4688C640.922 86.4688 638.883 85.9297 637.102 84.8516C635.32 83.7734 633.945 82.2266 632.977 80.2109C632.008 78.1953 631.523 75.8359 631.523 73.1328C631.523 68.9453 632.57 65.6875 634.664 63.3594C636.758 61.0156 639.664 59.8438 643.383 59.8438C646.977 59.8438 649.828 61.0391 651.938 63.4297C654.062 65.8203 655.125 69.0547 655.125 73.1328ZM635.555 73.1328C635.555 76.4141 636.211 78.9141 637.523 80.6328C638.836 82.3516 640.766 83.2109 643.312 83.2109C645.859 83.2109 647.789 82.3594 649.102 80.6562C650.43 78.9375 651.094 76.4297 651.094 73.1328C651.094 69.8672 650.43 67.3906 649.102 65.7031C647.789 64 645.844 63.1484 643.266 63.1484C640.719 63.1484 638.797 63.9844 637.5 65.6562C636.203 67.3281 635.555 69.8203 635.555 73.1328ZM567.305 151H563.367L556.453 128.055C556.125 127.039 555.758 125.758 555.352 124.211C554.945 122.664 554.734 121.734 554.719 121.422C554.375 123.484 553.828 125.742 553.078 128.195L546.375 151H542.438L533.32 116.734H537.539L542.953 137.898C543.703 140.867 544.25 143.555 544.594 145.961C545.016 143.102 545.641 140.305 546.469 137.57L552.609 116.734H556.828L563.273 137.758C564.023 140.18 564.656 142.914 565.172 145.961C565.469 143.742 566.031 141.039 566.859 137.852L572.25 116.734H576.469L567.305 151ZM603.422 138.133C603.422 142.32 602.367 145.594 600.258 147.953C598.148 150.297 595.234 151.469 591.516 151.469C589.219 151.469 587.18 150.93 585.398 149.852C583.617 148.773 582.242 147.227 581.273 145.211C580.305 143.195 579.82 140.836 579.82 138.133C579.82 133.945 580.867 130.688 582.961 128.359C585.055 126.016 587.961 124.844 591.68 124.844C595.273 124.844 598.125 126.039 600.234 128.43C602.359 130.82 603.422 134.055 603.422 138.133ZM583.852 138.133C583.852 141.414 584.508 143.914 585.82 145.633C587.133 147.352 589.062 148.211 591.609 148.211C594.156 148.211 596.086 147.359 597.398 145.656C598.727 143.938 599.391 141.43 599.391 138.133C599.391 134.867 598.727 132.391 597.398 130.703C596.086 129 594.141 128.148 591.562 128.148C589.016 128.148 587.094 128.984 585.797 130.656C584.5 132.328 583.852 134.82 583.852 138.133ZM621.984 124.844C623.125 124.844 624.148 124.938 625.055 125.125L624.516 128.734C623.453 128.5 622.516 128.383 621.703 128.383C619.625 128.383 617.844 129.227 616.359 130.914C614.891 132.602 614.156 134.703 614.156 137.219V151H610.266V125.312H613.477L613.922 130.07H614.109C615.062 128.398 616.211 127.109 617.555 126.203C618.898 125.297 620.375 124.844 621.984 124.844ZM633.75 151H629.859V114.531H633.75V151ZM659.484 147.555H659.273C657.477 150.164 654.789 151.469 651.211 151.469C647.852 151.469 645.234 150.32 643.359 148.023C641.5 145.727 640.57 142.461 640.57 138.227C640.57 133.992 641.508 130.703 643.383 128.359C645.258 126.016 647.867 124.844 651.211 124.844C654.695 124.844 657.367 126.109 659.227 128.641H659.531L659.367 126.789L659.273 124.984V114.531H663.164V151H660L659.484 147.555ZM651.703 148.211C654.359 148.211 656.281 147.492 657.469 146.055C658.672 144.602 659.273 142.266 659.273 139.047V138.227C659.273 134.586 658.664 131.992 657.445 130.445C656.242 128.883 654.312 128.102 651.656 128.102C649.375 128.102 647.625 128.992 646.406 130.773C645.203 132.539 644.602 135.039 644.602 138.273C644.602 141.555 645.203 144.031 646.406 145.703C647.609 147.375 649.375 148.211 651.703 148.211Z" fill="white"/>
</g>
<g id="logo">
<rect id="Background_4" x="1" y="1" width="198" height="198" stroke="#607D8B" stroke-width="2"/>
<path id="Text_4" d="M72.8828 86H68.8984V69.875H50.8516V86H46.8672V51.7344H50.8516V66.3125H68.8984V51.7344H72.8828V86ZM92.5703 86.4688C88.7734 86.4688 85.7734 85.3125 83.5703 83C81.3828 80.6875 80.2891 77.4766 80.2891 73.3672C80.2891 69.2266 81.3047 65.9375 83.3359 63.5C85.3828 61.0625 88.125 59.8438 91.5625 59.8438C94.7812 59.8438 97.3281 60.9062 99.2031 63.0312C101.078 65.1406 102.016 67.9297 102.016 71.3984V73.8594H84.3203C84.3984 76.875 85.1562 79.1641 86.5938 80.7266C88.0469 82.2891 90.0859 83.0703 92.7109 83.0703C95.4766 83.0703 98.2109 82.4922 100.914 81.3359V84.8047C99.5391 85.3984 98.2344 85.8203 97 86.0703C95.7812 86.3359 94.3047 86.4688 92.5703 86.4688ZM91.5156 63.1016C89.4531 63.1016 87.8047 63.7734 86.5703 65.1172C85.3516 66.4609 84.6328 68.3203 84.4141 70.6953H97.8438C97.8438 68.2422 97.2969 66.3672 96.2031 65.0703C95.1094 63.7578 93.5469 63.1016 91.5156 63.1016ZM112.562 86H108.672V49.5312H112.562V86ZM124.703 86H120.812V49.5312H124.703V86ZM155.125 73.1328C155.125 77.3203 154.07 80.5938 151.961 82.9531C149.852 85.2969 146.938 86.4688 143.219 86.4688C140.922 86.4688 138.883 85.9297 137.102 84.8516C135.32 83.7734 133.945 82.2266 132.977 80.2109C132.008 78.1953 131.523 75.8359 131.523 73.1328C131.523 68.9453 132.57 65.6875 134.664 63.3594C136.758 61.0156 139.664 59.8438 143.383 59.8438C146.977 59.8438 149.828 61.0391 151.938 63.4297C154.062 65.8203 155.125 69.0547 155.125 73.1328ZM135.555 73.1328C135.555 76.4141 136.211 78.9141 137.523 80.6328C138.836 82.3516 140.766 83.2109 143.312 83.2109C145.859 83.2109 147.789 82.3594 149.102 80.6562C150.43 78.9375 151.094 76.4297 151.094 73.1328C151.094 69.8672 150.43 67.3906 149.102 65.7031C147.789 64 145.844 63.1484 143.266 63.1484C140.719 63.1484 138.797 63.9844 137.5 65.6562C136.203 67.3281 135.555 69.8203 135.555 73.1328ZM67.3047 151H63.3672L56.4531 128.055C56.125 127.039 55.7578 125.758 55.3516 124.211C54.9453 122.664 54.7344 121.734 54.7188 121.422C54.375 123.484 53.8281 125.742 53.0781 128.195L46.375 151H42.4375L33.3203 116.734H37.5391L42.9531 137.898C43.7031 140.867 44.25 143.555 44.5938 145.961C45.0156 143.102 45.6406 140.305 46.4688 137.57L52.6094 116.734H56.8281L63.2734 137.758C64.0234 140.18 64.6562 142.914 65.1719 145.961C65.4688 143.742 66.0312 141.039 66.8594 137.852L72.25 116.734H76.4688L67.3047 151ZM103.422 138.133C103.422 142.32 102.367 145.594 100.258 147.953C98.1484 150.297 95.2344 151.469 91.5156 151.469C89.2188 151.469 87.1797 150.93 85.3984 149.852C83.6172 148.773 82.2422 147.227 81.2734 145.211C80.3047 143.195 79.8203 140.836 79.8203 138.133C79.8203 133.945 80.8672 130.688 82.9609 128.359C85.0547 126.016 87.9609 124.844 91.6797 124.844C95.2734 124.844 98.125 126.039 100.234 128.43C102.359 130.82 103.422 134.055 103.422 138.133ZM83.8516 138.133C83.8516 141.414 84.5078 143.914 85.8203 145.633C87.1328 147.352 89.0625 148.211 91.6094 148.211C94.1562 148.211 96.0859 147.359 97.3984 145.656C98.7266 143.938 99.3906 141.43 99.3906 138.133C99.3906 134.867 98.7266 132.391 97.3984 130.703C96.0859 129 94.1406 128.148 91.5625 128.148C89.0156 128.148 87.0938 128.984 85.7969 130.656C84.5 132.328 83.8516 134.82 83.8516 138.133ZM121.984 124.844C123.125 124.844 124.148 124.938 125.055 125.125L124.516 128.734C123.453 128.5 122.516 128.383 121.703 128.383C119.625 128.383 117.844 129.227 116.359 130.914C114.891 132.602 114.156 134.703 114.156 137.219V151H110.266V125.312H113.477L113.922 130.07H114.109C115.062 128.398 116.211 127.109 117.555 126.203C118.898 125.297 120.375 124.844 121.984 124.844ZM133.75 151H129.859V114.531H133.75V151ZM159.484 147.555H159.273C157.477 150.164 154.789 151.469 151.211 151.469C147.852 151.469 145.234 150.32 143.359 148.023C141.5 145.727 140.57 142.461 140.57 138.227C140.57 133.992 141.508 130.703 143.383 128.359C145.258 126.016 147.867 124.844 151.211 124.844C154.695 124.844 157.367 126.109 159.227 128.641H159.531L159.367 126.789L159.273 124.984V114.531H163.164V151H160L159.484 147.555ZM151.703 148.211C154.359 148.211 156.281 147.492 157.469 146.055C158.672 144.602 159.273 142.266 159.273 139.047V138.227C159.273 134.586 158.664 131.992 157.445 130.445C156.242 128.883 154.312 128.102 151.656 128.102C149.375 128.102 147.625 128.992 146.406 130.773C145.203 132.539 144.602 135.039 144.602 138.273C144.602 141.555 145.203 144.031 146.406 145.703C147.609 147.375 149.375 148.211 151.703 148.211Z" fill="#607D8B"/>
</g>
<g id="logo-opaque">
<rect id="Background_5" x="251" y="1" width="198" height="198" fill="white" stroke="#607D8B" stroke-width="2"/>
<path id="Text_5" d="M322.883 86H318.898V69.875H300.852V86H296.867V51.7344H300.852V66.3125H318.898V51.7344H322.883V86ZM342.57 86.4688C338.773 86.4688 335.773 85.3125 333.57 83C331.383 80.6875 330.289 77.4766 330.289 73.3672C330.289 69.2266 331.305 65.9375 333.336 63.5C335.383 61.0625 338.125 59.8438 341.562 59.8438C344.781 59.8438 347.328 60.9062 349.203 63.0312C351.078 65.1406 352.016 67.9297 352.016 71.3984V73.8594H334.32C334.398 76.875 335.156 79.1641 336.594 80.7266C338.047 82.2891 340.086 83.0703 342.711 83.0703C345.477 83.0703 348.211 82.4922 350.914 81.3359V84.8047C349.539 85.3984 348.234 85.8203 347 86.0703C345.781 86.3359 344.305 86.4688 342.57 86.4688ZM341.516 63.1016C339.453 63.1016 337.805 63.7734 336.57 65.1172C335.352 66.4609 334.633 68.3203 334.414 70.6953H347.844C347.844 68.2422 347.297 66.3672 346.203 65.0703C345.109 63.7578 343.547 63.1016 341.516 63.1016ZM362.562 86H358.672V49.5312H362.562V86ZM374.703 86H370.812V49.5312H374.703V86ZM405.125 73.1328C405.125 77.3203 404.07 80.5938 401.961 82.9531C399.852 85.2969 396.938 86.4688 393.219 86.4688C390.922 86.4688 388.883 85.9297 387.102 84.8516C385.32 83.7734 383.945 82.2266 382.977 80.2109C382.008 78.1953 381.523 75.8359 381.523 73.1328C381.523 68.9453 382.57 65.6875 384.664 63.3594C386.758 61.0156 389.664 59.8438 393.383 59.8438C396.977 59.8438 399.828 61.0391 401.938 63.4297C404.062 65.8203 405.125 69.0547 405.125 73.1328ZM385.555 73.1328C385.555 76.4141 386.211 78.9141 387.523 80.6328C388.836 82.3516 390.766 83.2109 393.312 83.2109C395.859 83.2109 397.789 82.3594 399.102 80.6562C400.43 78.9375 401.094 76.4297 401.094 73.1328C401.094 69.8672 400.43 67.3906 399.102 65.7031C397.789 64 395.844 63.1484 393.266 63.1484C390.719 63.1484 388.797 63.9844 387.5 65.6562C386.203 67.3281 385.555 69.8203 385.555 73.1328ZM317.305 151H313.367L306.453 128.055C306.125 127.039 305.758 125.758 305.352 124.211C304.945 122.664 304.734 121.734 304.719 121.422C304.375 123.484 303.828 125.742 303.078 128.195L296.375 151H292.438L283.32 116.734H287.539L292.953 137.898C293.703 140.867 294.25 143.555 294.594 145.961C295.016 143.102 295.641 140.305 296.469 137.57L302.609 116.734H306.828L313.273 137.758C314.023 140.18 314.656 142.914 315.172 145.961C315.469 143.742 316.031 141.039 316.859 137.852L322.25 116.734H326.469L317.305 151ZM353.422 138.133C353.422 142.32 352.367 145.594 350.258 147.953C348.148 150.297 345.234 151.469 341.516 151.469C339.219 151.469 337.18 150.93 335.398 149.852C333.617 148.773 332.242 147.227 331.273 145.211C330.305 143.195 329.82 140.836 329.82 138.133C329.82 133.945 330.867 130.688 332.961 128.359C335.055 126.016 337.961 124.844 341.68 124.844C345.273 124.844 348.125 126.039 350.234 128.43C352.359 130.82 353.422 134.055 353.422 138.133ZM333.852 138.133C333.852 141.414 334.508 143.914 335.82 145.633C337.133 147.352 339.062 148.211 341.609 148.211C344.156 148.211 346.086 147.359 347.398 145.656C348.727 143.938 349.391 141.43 349.391 138.133C349.391 134.867 348.727 132.391 347.398 130.703C346.086 129 344.141 128.148 341.562 128.148C339.016 128.148 337.094 128.984 335.797 130.656C334.5 132.328 333.852 134.82 333.852 138.133ZM371.984 124.844C373.125 124.844 374.148 124.938 375.055 125.125L374.516 128.734C373.453 128.5 372.516 128.383 371.703 128.383C369.625 128.383 367.844 129.227 366.359 130.914C364.891 132.602 364.156 134.703 364.156 137.219V151H360.266V125.312H363.477L363.922 130.07H364.109C365.062 128.398 366.211 127.109 367.555 126.203C368.898 125.297 370.375 124.844 371.984 124.844ZM383.75 151H379.859V114.531H383.75V151ZM409.484 147.555H409.273C407.477 150.164 404.789 151.469 401.211 151.469C397.852 151.469 395.234 150.32 393.359 148.023C391.5 145.727 390.57 142.461 390.57 138.227C390.57 133.992 391.508 130.703 393.383 128.359C395.258 126.016 397.867 124.844 401.211 124.844C404.695 124.844 407.367 126.109 409.227 128.641H409.531L409.367 126.789L409.273 124.984V114.531H413.164V151H410L409.484 147.555ZM401.703 148.211C404.359 148.211 406.281 147.492 407.469 146.055C408.672 144.602 409.273 142.266 409.273 139.047V138.227C409.273 134.586 408.664 131.992 407.445 130.445C406.242 128.883 404.312 128.102 401.656 128.102C399.375 128.102 397.625 128.992 396.406 130.773C395.203 132.539 394.602 135.039 394.602 138.273C394.602 141.555 395.203 144.031 396.406 145.703C397.609 147.375 399.375 148.211 401.703 148.211Z" fill="#607D8B"/>
</g>
</g>
</svg>
