<svg width="200" height="200" viewBox="0 0 200 200" fill="none" xmlns="http://www.w3.org/2000/svg">
<g id="starter">
<g id="logo-opaque">
<rect id="Background" x="1" y="1" width="198" height="198" fill="white" stroke="#607D8B" stroke-width="2"/>
<path id="Text" d="M47.4766 109.883C47.4766 112.898 46.3828 115.25 44.1953 116.938C42.0078 118.625 39.0391 119.469 35.2891 119.469C31.2266 119.469 28.1016 118.945 25.9141 117.898V114.055C27.3203 114.648 28.8516 115.117 30.5078 115.461C32.1641 115.805 33.8047 115.977 35.4297 115.977C38.0859 115.977 40.0859 115.477 41.4297 114.477C42.7734 113.461 43.4453 112.055 43.4453 110.258C43.4453 109.07 43.2031 108.102 42.7188 107.352C42.25 106.586 41.4531 105.883 40.3281 105.242C39.2188 104.602 37.5234 103.875 35.2422 103.062C32.0547 101.922 29.7734 100.57 28.3984 99.0078C27.0391 97.4453 26.3594 95.4062 26.3594 92.8906C26.3594 90.25 27.3516 88.1484 29.3359 86.5859C31.3203 85.0234 33.9453 84.2422 37.2109 84.2422C40.6172 84.2422 43.75 84.8672 46.6094 86.1172L45.3672 89.5859C42.5391 88.3984 39.7891 87.8047 37.1172 87.8047C35.0078 87.8047 33.3594 88.2578 32.1719 89.1641C30.9844 90.0703 30.3906 91.3281 30.3906 92.9375C30.3906 94.125 30.6094 95.1016 31.0469 95.8672C31.4844 96.6172 32.2188 97.3125 33.25 97.9531C34.2969 98.5781 35.8906 99.2734 38.0312 100.039C41.625 101.32 44.0938 102.695 45.4375 104.164C46.7969 105.633 47.4766 107.539 47.4766 109.883ZM62.1953 116.258C62.8828 116.258 63.5469 116.211 64.1875 116.117C64.8281 116.008 65.3359 115.898 65.7109 115.789V118.766C65.2891 118.969 64.6641 119.133 63.8359 119.258C63.0234 119.398 62.2891 119.469 61.6328 119.469C56.6641 119.469 54.1797 116.852 54.1797 111.617V96.3359H50.5V94.4609L54.1797 92.8438L55.8203 87.3594H58.0703V93.3125H65.5234V96.3359H58.0703V111.453C58.0703 113 58.4375 114.188 59.1719 115.016C59.9062 115.844 60.9141 116.258 62.1953 116.258ZM86.6641 119L85.8906 115.344H85.7031C84.4219 116.953 83.1406 118.047 81.8594 118.625C80.5938 119.188 79.0078 119.469 77.1016 119.469C74.5547 119.469 72.5547 118.812 71.1016 117.5C69.6641 116.188 68.9453 114.32 68.9453 111.898C68.9453 106.711 73.0938 103.992 81.3906 103.742L85.75 103.602V102.008C85.75 99.9922 85.3125 98.5078 84.4375 97.5547C83.5781 96.5859 82.1953 96.1016 80.2891 96.1016C78.1484 96.1016 75.7266 96.7578 73.0234 98.0703L71.8281 95.0938C73.0938 94.4062 74.4766 93.8672 75.9766 93.4766C77.4922 93.0859 79.0078 92.8906 80.5234 92.8906C83.5859 92.8906 85.8516 93.5703 87.3203 94.9297C88.8047 96.2891 89.5469 98.4688 89.5469 101.469V119H86.6641ZM77.875 116.258C80.2969 116.258 82.1953 115.594 83.5703 114.266C84.9609 112.938 85.6562 111.078 85.6562 108.688V106.367L81.7656 106.531C78.6719 106.641 76.4375 107.125 75.0625 107.984C73.7031 108.828 73.0234 110.148 73.0234 111.945C73.0234 113.352 73.4453 114.422 74.2891 115.156C75.1484 115.891 76.3438 116.258 77.875 116.258ZM109.305 92.8438C110.445 92.8438 111.469 92.9375 112.375 93.125L111.836 96.7344C110.773 96.5 109.836 96.3828 109.023 96.3828C106.945 96.3828 105.164 97.2266 103.68 98.9141C102.211 100.602 101.477 102.703 101.477 105.219V119H97.5859V93.3125H100.797L101.242 98.0703H101.43C102.383 96.3984 103.531 95.1094 104.875 94.2031C106.219 93.2969 107.695 92.8438 109.305 92.8438ZM125.477 116.258C126.164 116.258 126.828 116.211 127.469 116.117C128.109 116.008 128.617 115.898 128.992 115.789V118.766C128.57 118.969 127.945 119.133 127.117 119.258C126.305 119.398 125.57 119.469 124.914 119.469C119.945 119.469 117.461 116.852 117.461 111.617V96.3359H113.781V94.4609L117.461 92.8438L119.102 87.3594H121.352V93.3125H128.805V96.3359H121.352V111.453C121.352 113 121.719 114.188 122.453 115.016C123.188 115.844 124.195 116.258 125.477 116.258ZM145 119.469C141.203 119.469 138.203 118.312 136 116C133.812 113.688 132.719 110.477 132.719 106.367C132.719 102.227 133.734 98.9375 135.766 96.5C137.812 94.0625 140.555 92.8438 143.992 92.8438C147.211 92.8438 149.758 93.9062 151.633 96.0312C153.508 98.1406 154.445 100.93 154.445 104.398V106.859H136.75C136.828 109.875 137.586 112.164 139.023 113.727C140.477 115.289 142.516 116.07 145.141 116.07C147.906 116.07 150.641 115.492 153.344 114.336V117.805C151.969 118.398 150.664 118.82 149.43 119.07C148.211 119.336 146.734 119.469 145 119.469ZM143.945 96.1016C141.883 96.1016 140.234 96.7734 139 98.1172C137.781 99.4609 137.062 101.32 136.844 103.695H150.273C150.273 101.242 149.727 99.3672 148.633 98.0703C147.539 96.7578 145.977 96.1016 143.945 96.1016ZM172.82 92.8438C173.961 92.8438 174.984 92.9375 175.891 93.125L175.352 96.7344C174.289 96.5 173.352 96.3828 172.539 96.3828C170.461 96.3828 168.68 97.2266 167.195 98.9141C165.727 100.602 164.992 102.703 164.992 105.219V119H161.102V93.3125H164.312L164.758 98.0703H164.945C165.898 96.3984 167.047 95.1094 168.391 94.2031C169.734 93.2969 171.211 92.8438 172.82 92.8438Z" fill="#607D8B"/>
</g>
</g>
</svg>
