<svg width="950" height="450" viewBox="0 0 950 450" fill="none" xmlns="http://www.w3.org/2000/svg">
<g id="starter">
<g id="icon">
<rect id="Background" x="1" y="251" width="198" height="198" fill="white" stroke="#607D8B" stroke-width="2"/>
<path id="Text" d="M47.4766 359.883C47.4766 362.898 46.3828 365.25 44.1953 366.938C42.0078 368.625 39.0391 369.469 35.2891 369.469C31.2266 369.469 28.1016 368.945 25.9141 367.898V364.055C27.3203 364.648 28.8516 365.117 30.5078 365.461C32.1641 365.805 33.8047 365.977 35.4297 365.977C38.0859 365.977 40.0859 365.477 41.4297 364.477C42.7734 363.461 43.4453 362.055 43.4453 360.258C43.4453 359.07 43.2031 358.102 42.7188 357.352C42.25 356.586 41.4531 355.883 40.3281 355.242C39.2188 354.602 37.5234 353.875 35.2422 353.062C32.0547 351.922 29.7734 350.57 28.3984 349.008C27.0391 347.445 26.3594 345.406 26.3594 342.891C26.3594 340.25 27.3516 338.148 29.3359 336.586C31.3203 335.023 33.9453 334.242 37.2109 334.242C40.6172 334.242 43.75 334.867 46.6094 336.117L45.3672 339.586C42.5391 338.398 39.7891 337.805 37.1172 337.805C35.0078 337.805 33.3594 338.258 32.1719 339.164C30.9844 340.07 30.3906 341.328 30.3906 342.938C30.3906 344.125 30.6094 345.102 31.0469 345.867C31.4844 346.617 32.2188 347.312 33.25 347.953C34.2969 348.578 35.8906 349.273 38.0312 350.039C41.625 351.32 44.0938 352.695 45.4375 354.164C46.7969 355.633 47.4766 357.539 47.4766 359.883ZM62.1953 366.258C62.8828 366.258 63.5469 366.211 64.1875 366.117C64.8281 366.008 65.3359 365.898 65.7109 365.789V368.766C65.2891 368.969 64.6641 369.133 63.8359 369.258C63.0234 369.398 62.2891 369.469 61.6328 369.469C56.6641 369.469 54.1797 366.852 54.1797 361.617V346.336H50.5V344.461L54.1797 342.844L55.8203 337.359H58.0703V343.312H65.5234V346.336H58.0703V361.453C58.0703 363 58.4375 364.188 59.1719 365.016C59.9062 365.844 60.9141 366.258 62.1953 366.258ZM86.6641 369L85.8906 365.344H85.7031C84.4219 366.953 83.1406 368.047 81.8594 368.625C80.5938 369.188 79.0078 369.469 77.1016 369.469C74.5547 369.469 72.5547 368.812 71.1016 367.5C69.6641 366.188 68.9453 364.32 68.9453 361.898C68.9453 356.711 73.0938 353.992 81.3906 353.742L85.75 353.602V352.008C85.75 349.992 85.3125 348.508 84.4375 347.555C83.5781 346.586 82.1953 346.102 80.2891 346.102C78.1484 346.102 75.7266 346.758 73.0234 348.07L71.8281 345.094C73.0938 344.406 74.4766 343.867 75.9766 343.477C77.4922 343.086 79.0078 342.891 80.5234 342.891C83.5859 342.891 85.8516 343.57 87.3203 344.93C88.8047 346.289 89.5469 348.469 89.5469 351.469V369H86.6641ZM77.875 366.258C80.2969 366.258 82.1953 365.594 83.5703 364.266C84.9609 362.938 85.6562 361.078 85.6562 358.688V356.367L81.7656 356.531C78.6719 356.641 76.4375 357.125 75.0625 357.984C73.7031 358.828 73.0234 360.148 73.0234 361.945C73.0234 363.352 73.4453 364.422 74.2891 365.156C75.1484 365.891 76.3438 366.258 77.875 366.258ZM109.305 342.844C110.445 342.844 111.469 342.938 112.375 343.125L111.836 346.734C110.773 346.5 109.836 346.383 109.023 346.383C106.945 346.383 105.164 347.227 103.68 348.914C102.211 350.602 101.477 352.703 101.477 355.219V369H97.5859V343.312H100.797L101.242 348.07H101.43C102.383 346.398 103.531 345.109 104.875 344.203C106.219 343.297 107.695 342.844 109.305 342.844ZM125.477 366.258C126.164 366.258 126.828 366.211 127.469 366.117C128.109 366.008 128.617 365.898 128.992 365.789V368.766C128.57 368.969 127.945 369.133 127.117 369.258C126.305 369.398 125.57 369.469 124.914 369.469C119.945 369.469 117.461 366.852 117.461 361.617V346.336H113.781V344.461L117.461 342.844L119.102 337.359H121.352V343.312H128.805V346.336H121.352V361.453C121.352 363 121.719 364.188 122.453 365.016C123.188 365.844 124.195 366.258 125.477 366.258ZM145 369.469C141.203 369.469 138.203 368.312 136 366C133.812 363.688 132.719 360.477 132.719 356.367C132.719 352.227 133.734 348.938 135.766 346.5C137.812 344.062 140.555 342.844 143.992 342.844C147.211 342.844 149.758 343.906 151.633 346.031C153.508 348.141 154.445 350.93 154.445 354.398V356.859H136.75C136.828 359.875 137.586 362.164 139.023 363.727C140.477 365.289 142.516 366.07 145.141 366.07C147.906 366.07 150.641 365.492 153.344 364.336V367.805C151.969 368.398 150.664 368.82 149.43 369.07C148.211 369.336 146.734 369.469 145 369.469ZM143.945 346.102C141.883 346.102 140.234 346.773 139 348.117C137.781 349.461 137.062 351.32 136.844 353.695H150.273C150.273 351.242 149.727 349.367 148.633 348.07C147.539 346.758 145.977 346.102 143.945 346.102ZM172.82 342.844C173.961 342.844 174.984 342.938 175.891 343.125L175.352 346.734C174.289 346.5 173.352 346.383 172.539 346.383C170.461 346.383 168.68 347.227 167.195 348.914C165.727 350.602 164.992 352.703 164.992 355.219V369H161.102V343.312H164.312L164.758 348.07H164.945C165.898 346.398 167.047 345.109 168.391 344.203C169.734 343.297 171.211 342.844 172.82 342.844Z" fill="#607D8B"/>
</g>
<g id="logo-dark">
<rect width="200" height="200" transform="translate(750)" fill="white" fill-opacity="0.6"/>
<rect id="Background_2" x="751" y="1" width="198" height="198" stroke="black" stroke-width="2"/>
<path id="Text_2" d="M797.477 109.883C797.477 112.898 796.383 115.25 794.195 116.938C792.008 118.625 789.039 119.469 785.289 119.469C781.227 119.469 778.102 118.945 775.914 117.898V114.055C777.32 114.648 778.852 115.117 780.508 115.461C782.164 115.805 783.805 115.977 785.43 115.977C788.086 115.977 790.086 115.477 791.43 114.477C792.773 113.461 793.445 112.055 793.445 110.258C793.445 109.07 793.203 108.102 792.719 107.352C792.25 106.586 791.453 105.883 790.328 105.242C789.219 104.602 787.523 103.875 785.242 103.062C782.055 101.922 779.773 100.57 778.398 99.0078C777.039 97.4453 776.359 95.4062 776.359 92.8906C776.359 90.25 777.352 88.1484 779.336 86.5859C781.32 85.0234 783.945 84.2422 787.211 84.2422C790.617 84.2422 793.75 84.8672 796.609 86.1172L795.367 89.5859C792.539 88.3984 789.789 87.8047 787.117 87.8047C785.008 87.8047 783.359 88.2578 782.172 89.1641C780.984 90.0703 780.391 91.3281 780.391 92.9375C780.391 94.125 780.609 95.1016 781.047 95.8672C781.484 96.6172 782.219 97.3125 783.25 97.9531C784.297 98.5781 785.891 99.2734 788.031 100.039C791.625 101.32 794.094 102.695 795.438 104.164C796.797 105.633 797.477 107.539 797.477 109.883ZM812.195 116.258C812.883 116.258 813.547 116.211 814.188 116.117C814.828 116.008 815.336 115.898 815.711 115.789V118.766C815.289 118.969 814.664 119.133 813.836 119.258C813.023 119.398 812.289 119.469 811.633 119.469C806.664 119.469 804.18 116.852 804.18 111.617V96.3359H800.5V94.4609L804.18 92.8438L805.82 87.3594H808.07V93.3125H815.523V96.3359H808.07V111.453C808.07 113 808.438 114.188 809.172 115.016C809.906 115.844 810.914 116.258 812.195 116.258ZM836.664 119L835.891 115.344H835.703C834.422 116.953 833.141 118.047 831.859 118.625C830.594 119.188 829.008 119.469 827.102 119.469C824.555 119.469 822.555 118.812 821.102 117.5C819.664 116.188 818.945 114.32 818.945 111.898C818.945 106.711 823.094 103.992 831.391 103.742L835.75 103.602V102.008C835.75 99.9922 835.312 98.5078 834.438 97.5547C833.578 96.5859 832.195 96.1016 830.289 96.1016C828.148 96.1016 825.727 96.7578 823.023 98.0703L821.828 95.0938C823.094 94.4062 824.477 93.8672 825.977 93.4766C827.492 93.0859 829.008 92.8906 830.523 92.8906C833.586 92.8906 835.852 93.5703 837.32 94.9297C838.805 96.2891 839.547 98.4688 839.547 101.469V119H836.664ZM827.875 116.258C830.297 116.258 832.195 115.594 833.57 114.266C834.961 112.938 835.656 111.078 835.656 108.688V106.367L831.766 106.531C828.672 106.641 826.438 107.125 825.062 107.984C823.703 108.828 823.023 110.148 823.023 111.945C823.023 113.352 823.445 114.422 824.289 115.156C825.148 115.891 826.344 116.258 827.875 116.258ZM859.305 92.8438C860.445 92.8438 861.469 92.9375 862.375 93.125L861.836 96.7344C860.773 96.5 859.836 96.3828 859.023 96.3828C856.945 96.3828 855.164 97.2266 853.68 98.9141C852.211 100.602 851.477 102.703 851.477 105.219V119H847.586V93.3125H850.797L851.242 98.0703H851.43C852.383 96.3984 853.531 95.1094 854.875 94.2031C856.219 93.2969 857.695 92.8438 859.305 92.8438ZM875.477 116.258C876.164 116.258 876.828 116.211 877.469 116.117C878.109 116.008 878.617 115.898 878.992 115.789V118.766C878.57 118.969 877.945 119.133 877.117 119.258C876.305 119.398 875.57 119.469 874.914 119.469C869.945 119.469 867.461 116.852 867.461 111.617V96.3359H863.781V94.4609L867.461 92.8438L869.102 87.3594H871.352V93.3125H878.805V96.3359H871.352V111.453C871.352 113 871.719 114.188 872.453 115.016C873.188 115.844 874.195 116.258 875.477 116.258ZM895 119.469C891.203 119.469 888.203 118.312 886 116C883.812 113.688 882.719 110.477 882.719 106.367C882.719 102.227 883.734 98.9375 885.766 96.5C887.812 94.0625 890.555 92.8438 893.992 92.8438C897.211 92.8438 899.758 93.9062 901.633 96.0312C903.508 98.1406 904.445 100.93 904.445 104.398V106.859H886.75C886.828 109.875 887.586 112.164 889.023 113.727C890.477 115.289 892.516 116.07 895.141 116.07C897.906 116.07 900.641 115.492 903.344 114.336V117.805C901.969 118.398 900.664 118.82 899.43 119.07C898.211 119.336 896.734 119.469 895 119.469ZM893.945 96.1016C891.883 96.1016 890.234 96.7734 889 98.1172C887.781 99.4609 887.062 101.32 886.844 103.695H900.273C900.273 101.242 899.727 99.3672 898.633 98.0703C897.539 96.7578 895.977 96.1016 893.945 96.1016ZM922.82 92.8438C923.961 92.8438 924.984 92.9375 925.891 93.125L925.352 96.7344C924.289 96.5 923.352 96.3828 922.539 96.3828C920.461 96.3828 918.68 97.2266 917.195 98.9141C915.727 100.602 914.992 102.703 914.992 105.219V119H911.102V93.3125H914.312L914.758 98.0703H914.945C915.898 96.3984 917.047 95.1094 918.391 94.2031C919.734 93.2969 921.211 92.8438 922.82 92.8438Z" fill="black"/>
</g>
<g id="logo-light">
<rect width="200" height="200" transform="translate(500)" fill="black" fill-opacity="0.6"/>
<rect id="Background_3" x="501" y="1" width="198" height="198" stroke="white" stroke-width="2"/>
<path id="Text_3" d="M547.477 109.883C547.477 112.898 546.383 115.25 544.195 116.938C542.008 118.625 539.039 119.469 535.289 119.469C531.227 119.469 528.102 118.945 525.914 117.898V114.055C527.32 114.648 528.852 115.117 530.508 115.461C532.164 115.805 533.805 115.977 535.43 115.977C538.086 115.977 540.086 115.477 541.43 114.477C542.773 113.461 543.445 112.055 543.445 110.258C543.445 109.07 543.203 108.102 542.719 107.352C542.25 106.586 541.453 105.883 540.328 105.242C539.219 104.602 537.523 103.875 535.242 103.062C532.055 101.922 529.773 100.57 528.398 99.0078C527.039 97.4453 526.359 95.4062 526.359 92.8906C526.359 90.25 527.352 88.1484 529.336 86.5859C531.32 85.0234 533.945 84.2422 537.211 84.2422C540.617 84.2422 543.75 84.8672 546.609 86.1172L545.367 89.5859C542.539 88.3984 539.789 87.8047 537.117 87.8047C535.008 87.8047 533.359 88.2578 532.172 89.1641C530.984 90.0703 530.391 91.3281 530.391 92.9375C530.391 94.125 530.609 95.1016 531.047 95.8672C531.484 96.6172 532.219 97.3125 533.25 97.9531C534.297 98.5781 535.891 99.2734 538.031 100.039C541.625 101.32 544.094 102.695 545.438 104.164C546.797 105.633 547.477 107.539 547.477 109.883ZM562.195 116.258C562.883 116.258 563.547 116.211 564.188 116.117C564.828 116.008 565.336 115.898 565.711 115.789V118.766C565.289 118.969 564.664 119.133 563.836 119.258C563.023 119.398 562.289 119.469 561.633 119.469C556.664 119.469 554.18 116.852 554.18 111.617V96.3359H550.5V94.4609L554.18 92.8438L555.82 87.3594H558.07V93.3125H565.523V96.3359H558.07V111.453C558.07 113 558.438 114.188 559.172 115.016C559.906 115.844 560.914 116.258 562.195 116.258ZM586.664 119L585.891 115.344H585.703C584.422 116.953 583.141 118.047 581.859 118.625C580.594 119.188 579.008 119.469 577.102 119.469C574.555 119.469 572.555 118.812 571.102 117.5C569.664 116.188 568.945 114.32 568.945 111.898C568.945 106.711 573.094 103.992 581.391 103.742L585.75 103.602V102.008C585.75 99.9922 585.312 98.5078 584.438 97.5547C583.578 96.5859 582.195 96.1016 580.289 96.1016C578.148 96.1016 575.727 96.7578 573.023 98.0703L571.828 95.0938C573.094 94.4062 574.477 93.8672 575.977 93.4766C577.492 93.0859 579.008 92.8906 580.523 92.8906C583.586 92.8906 585.852 93.5703 587.32 94.9297C588.805 96.2891 589.547 98.4688 589.547 101.469V119H586.664ZM577.875 116.258C580.297 116.258 582.195 115.594 583.57 114.266C584.961 112.938 585.656 111.078 585.656 108.688V106.367L581.766 106.531C578.672 106.641 576.438 107.125 575.062 107.984C573.703 108.828 573.023 110.148 573.023 111.945C573.023 113.352 573.445 114.422 574.289 115.156C575.148 115.891 576.344 116.258 577.875 116.258ZM609.305 92.8438C610.445 92.8438 611.469 92.9375 612.375 93.125L611.836 96.7344C610.773 96.5 609.836 96.3828 609.023 96.3828C606.945 96.3828 605.164 97.2266 603.68 98.9141C602.211 100.602 601.477 102.703 601.477 105.219V119H597.586V93.3125H600.797L601.242 98.0703H601.43C602.383 96.3984 603.531 95.1094 604.875 94.2031C606.219 93.2969 607.695 92.8438 609.305 92.8438ZM625.477 116.258C626.164 116.258 626.828 116.211 627.469 116.117C628.109 116.008 628.617 115.898 628.992 115.789V118.766C628.57 118.969 627.945 119.133 627.117 119.258C626.305 119.398 625.57 119.469 624.914 119.469C619.945 119.469 617.461 116.852 617.461 111.617V96.3359H613.781V94.4609L617.461 92.8438L619.102 87.3594H621.352V93.3125H628.805V96.3359H621.352V111.453C621.352 113 621.719 114.188 622.453 115.016C623.188 115.844 624.195 116.258 625.477 116.258ZM645 119.469C641.203 119.469 638.203 118.312 636 116C633.812 113.688 632.719 110.477 632.719 106.367C632.719 102.227 633.734 98.9375 635.766 96.5C637.812 94.0625 640.555 92.8438 643.992 92.8438C647.211 92.8438 649.758 93.9062 651.633 96.0312C653.508 98.1406 654.445 100.93 654.445 104.398V106.859H636.75C636.828 109.875 637.586 112.164 639.023 113.727C640.477 115.289 642.516 116.07 645.141 116.07C647.906 116.07 650.641 115.492 653.344 114.336V117.805C651.969 118.398 650.664 118.82 649.43 119.07C648.211 119.336 646.734 119.469 645 119.469ZM643.945 96.1016C641.883 96.1016 640.234 96.7734 639 98.1172C637.781 99.4609 637.062 101.32 636.844 103.695H650.273C650.273 101.242 649.727 99.3672 648.633 98.0703C647.539 96.7578 645.977 96.1016 643.945 96.1016ZM672.82 92.8438C673.961 92.8438 674.984 92.9375 675.891 93.125L675.352 96.7344C674.289 96.5 673.352 96.3828 672.539 96.3828C670.461 96.3828 668.68 97.2266 667.195 98.9141C665.727 100.602 664.992 102.703 664.992 105.219V119H661.102V93.3125H664.312L664.758 98.0703H664.945C665.898 96.3984 667.047 95.1094 668.391 94.2031C669.734 93.2969 671.211 92.8438 672.82 92.8438Z" fill="white"/>
</g>
<g id="logo">
<rect id="Background_4" x="1" y="1" width="198" height="198" stroke="#607D8B" stroke-width="2"/>
<path id="Text_4" d="M47.4766 109.883C47.4766 112.898 46.3828 115.25 44.1953 116.938C42.0078 118.625 39.0391 119.469 35.2891 119.469C31.2266 119.469 28.1016 118.945 25.9141 117.898V114.055C27.3203 114.648 28.8516 115.117 30.5078 115.461C32.1641 115.805 33.8047 115.977 35.4297 115.977C38.0859 115.977 40.0859 115.477 41.4297 114.477C42.7734 113.461 43.4453 112.055 43.4453 110.258C43.4453 109.07 43.2031 108.102 42.7188 107.352C42.25 106.586 41.4531 105.883 40.3281 105.242C39.2188 104.602 37.5234 103.875 35.2422 103.062C32.0547 101.922 29.7734 100.57 28.3984 99.0078C27.0391 97.4453 26.3594 95.4062 26.3594 92.8906C26.3594 90.25 27.3516 88.1484 29.3359 86.5859C31.3203 85.0234 33.9453 84.2422 37.2109 84.2422C40.6172 84.2422 43.75 84.8672 46.6094 86.1172L45.3672 89.5859C42.5391 88.3984 39.7891 87.8047 37.1172 87.8047C35.0078 87.8047 33.3594 88.2578 32.1719 89.1641C30.9844 90.0703 30.3906 91.3281 30.3906 92.9375C30.3906 94.125 30.6094 95.1016 31.0469 95.8672C31.4844 96.6172 32.2188 97.3125 33.25 97.9531C34.2969 98.5781 35.8906 99.2734 38.0312 100.039C41.625 101.32 44.0938 102.695 45.4375 104.164C46.7969 105.633 47.4766 107.539 47.4766 109.883ZM62.1953 116.258C62.8828 116.258 63.5469 116.211 64.1875 116.117C64.8281 116.008 65.3359 115.898 65.7109 115.789V118.766C65.2891 118.969 64.6641 119.133 63.8359 119.258C63.0234 119.398 62.2891 119.469 61.6328 119.469C56.6641 119.469 54.1797 116.852 54.1797 111.617V96.3359H50.5V94.4609L54.1797 92.8438L55.8203 87.3594H58.0703V93.3125H65.5234V96.3359H58.0703V111.453C58.0703 113 58.4375 114.188 59.1719 115.016C59.9062 115.844 60.9141 116.258 62.1953 116.258ZM86.6641 119L85.8906 115.344H85.7031C84.4219 116.953 83.1406 118.047 81.8594 118.625C80.5938 119.188 79.0078 119.469 77.1016 119.469C74.5547 119.469 72.5547 118.812 71.1016 117.5C69.6641 116.188 68.9453 114.32 68.9453 111.898C68.9453 106.711 73.0938 103.992 81.3906 103.742L85.75 103.602V102.008C85.75 99.9922 85.3125 98.5078 84.4375 97.5547C83.5781 96.5859 82.1953 96.1016 80.2891 96.1016C78.1484 96.1016 75.7266 96.7578 73.0234 98.0703L71.8281 95.0938C73.0938 94.4062 74.4766 93.8672 75.9766 93.4766C77.4922 93.0859 79.0078 92.8906 80.5234 92.8906C83.5859 92.8906 85.8516 93.5703 87.3203 94.9297C88.8047 96.2891 89.5469 98.4688 89.5469 101.469V119H86.6641ZM77.875 116.258C80.2969 116.258 82.1953 115.594 83.5703 114.266C84.9609 112.938 85.6562 111.078 85.6562 108.688V106.367L81.7656 106.531C78.6719 106.641 76.4375 107.125 75.0625 107.984C73.7031 108.828 73.0234 110.148 73.0234 111.945C73.0234 113.352 73.4453 114.422 74.2891 115.156C75.1484 115.891 76.3438 116.258 77.875 116.258ZM109.305 92.8438C110.445 92.8438 111.469 92.9375 112.375 93.125L111.836 96.7344C110.773 96.5 109.836 96.3828 109.023 96.3828C106.945 96.3828 105.164 97.2266 103.68 98.9141C102.211 100.602 101.477 102.703 101.477 105.219V119H97.5859V93.3125H100.797L101.242 98.0703H101.43C102.383 96.3984 103.531 95.1094 104.875 94.2031C106.219 93.2969 107.695 92.8438 109.305 92.8438ZM125.477 116.258C126.164 116.258 126.828 116.211 127.469 116.117C128.109 116.008 128.617 115.898 128.992 115.789V118.766C128.57 118.969 127.945 119.133 127.117 119.258C126.305 119.398 125.57 119.469 124.914 119.469C119.945 119.469 117.461 116.852 117.461 111.617V96.3359H113.781V94.4609L117.461 92.8438L119.102 87.3594H121.352V93.3125H128.805V96.3359H121.352V111.453C121.352 113 121.719 114.188 122.453 115.016C123.188 115.844 124.195 116.258 125.477 116.258ZM145 119.469C141.203 119.469 138.203 118.312 136 116C133.812 113.688 132.719 110.477 132.719 106.367C132.719 102.227 133.734 98.9375 135.766 96.5C137.812 94.0625 140.555 92.8438 143.992 92.8438C147.211 92.8438 149.758 93.9062 151.633 96.0312C153.508 98.1406 154.445 100.93 154.445 104.398V106.859H136.75C136.828 109.875 137.586 112.164 139.023 113.727C140.477 115.289 142.516 116.07 145.141 116.07C147.906 116.07 150.641 115.492 153.344 114.336V117.805C151.969 118.398 150.664 118.82 149.43 119.07C148.211 119.336 146.734 119.469 145 119.469ZM143.945 96.1016C141.883 96.1016 140.234 96.7734 139 98.1172C137.781 99.4609 137.062 101.32 136.844 103.695H150.273C150.273 101.242 149.727 99.3672 148.633 98.0703C147.539 96.7578 145.977 96.1016 143.945 96.1016ZM172.82 92.8438C173.961 92.8438 174.984 92.9375 175.891 93.125L175.352 96.7344C174.289 96.5 173.352 96.3828 172.539 96.3828C170.461 96.3828 168.68 97.2266 167.195 98.9141C165.727 100.602 164.992 102.703 164.992 105.219V119H161.102V93.3125H164.312L164.758 98.0703H164.945C165.898 96.3984 167.047 95.1094 168.391 94.2031C169.734 93.2969 171.211 92.8438 172.82 92.8438Z" fill="#607D8B"/>
</g>
<g id="logo-opaque">
<rect id="Background_5" x="251" y="1" width="198" height="198" fill="white" stroke="#607D8B" stroke-width="2"/>
<path id="Text_5" d="M297.477 109.883C297.477 112.898 296.383 115.25 294.195 116.938C292.008 118.625 289.039 119.469 285.289 119.469C281.227 119.469 278.102 118.945 275.914 117.898V114.055C277.32 114.648 278.852 115.117 280.508 115.461C282.164 115.805 283.805 115.977 285.43 115.977C288.086 115.977 290.086 115.477 291.43 114.477C292.773 113.461 293.445 112.055 293.445 110.258C293.445 109.07 293.203 108.102 292.719 107.352C292.25 106.586 291.453 105.883 290.328 105.242C289.219 104.602 287.523 103.875 285.242 103.062C282.055 101.922 279.773 100.57 278.398 99.0078C277.039 97.4453 276.359 95.4062 276.359 92.8906C276.359 90.25 277.352 88.1484 279.336 86.5859C281.32 85.0234 283.945 84.2422 287.211 84.2422C290.617 84.2422 293.75 84.8672 296.609 86.1172L295.367 89.5859C292.539 88.3984 289.789 87.8047 287.117 87.8047C285.008 87.8047 283.359 88.2578 282.172 89.1641C280.984 90.0703 280.391 91.3281 280.391 92.9375C280.391 94.125 280.609 95.1016 281.047 95.8672C281.484 96.6172 282.219 97.3125 283.25 97.9531C284.297 98.5781 285.891 99.2734 288.031 100.039C291.625 101.32 294.094 102.695 295.438 104.164C296.797 105.633 297.477 107.539 297.477 109.883ZM312.195 116.258C312.883 116.258 313.547 116.211 314.188 116.117C314.828 116.008 315.336 115.898 315.711 115.789V118.766C315.289 118.969 314.664 119.133 313.836 119.258C313.023 119.398 312.289 119.469 311.633 119.469C306.664 119.469 304.18 116.852 304.18 111.617V96.3359H300.5V94.4609L304.18 92.8438L305.82 87.3594H308.07V93.3125H315.523V96.3359H308.07V111.453C308.07 113 308.438 114.188 309.172 115.016C309.906 115.844 310.914 116.258 312.195 116.258ZM336.664 119L335.891 115.344H335.703C334.422 116.953 333.141 118.047 331.859 118.625C330.594 119.188 329.008 119.469 327.102 119.469C324.555 119.469 322.555 118.812 321.102 117.5C319.664 116.188 318.945 114.32 318.945 111.898C318.945 106.711 323.094 103.992 331.391 103.742L335.75 103.602V102.008C335.75 99.9922 335.312 98.5078 334.438 97.5547C333.578 96.5859 332.195 96.1016 330.289 96.1016C328.148 96.1016 325.727 96.7578 323.023 98.0703L321.828 95.0938C323.094 94.4062 324.477 93.8672 325.977 93.4766C327.492 93.0859 329.008 92.8906 330.523 92.8906C333.586 92.8906 335.852 93.5703 337.32 94.9297C338.805 96.2891 339.547 98.4688 339.547 101.469V119H336.664ZM327.875 116.258C330.297 116.258 332.195 115.594 333.57 114.266C334.961 112.938 335.656 111.078 335.656 108.688V106.367L331.766 106.531C328.672 106.641 326.438 107.125 325.062 107.984C323.703 108.828 323.023 110.148 323.023 111.945C323.023 113.352 323.445 114.422 324.289 115.156C325.148 115.891 326.344 116.258 327.875 116.258ZM359.305 92.8438C360.445 92.8438 361.469 92.9375 362.375 93.125L361.836 96.7344C360.773 96.5 359.836 96.3828 359.023 96.3828C356.945 96.3828 355.164 97.2266 353.68 98.9141C352.211 100.602 351.477 102.703 351.477 105.219V119H347.586V93.3125H350.797L351.242 98.0703H351.43C352.383 96.3984 353.531 95.1094 354.875 94.2031C356.219 93.2969 357.695 92.8438 359.305 92.8438ZM375.477 116.258C376.164 116.258 376.828 116.211 377.469 116.117C378.109 116.008 378.617 115.898 378.992 115.789V118.766C378.57 118.969 377.945 119.133 377.117 119.258C376.305 119.398 375.57 119.469 374.914 119.469C369.945 119.469 367.461 116.852 367.461 111.617V96.3359H363.781V94.4609L367.461 92.8438L369.102 87.3594H371.352V93.3125H378.805V96.3359H371.352V111.453C371.352 113 371.719 114.188 372.453 115.016C373.188 115.844 374.195 116.258 375.477 116.258ZM395 119.469C391.203 119.469 388.203 118.312 386 116C383.812 113.688 382.719 110.477 382.719 106.367C382.719 102.227 383.734 98.9375 385.766 96.5C387.812 94.0625 390.555 92.8438 393.992 92.8438C397.211 92.8438 399.758 93.9062 401.633 96.0312C403.508 98.1406 404.445 100.93 404.445 104.398V106.859H386.75C386.828 109.875 387.586 112.164 389.023 113.727C390.477 115.289 392.516 116.07 395.141 116.07C397.906 116.07 400.641 115.492 403.344 114.336V117.805C401.969 118.398 400.664 118.82 399.43 119.07C398.211 119.336 396.734 119.469 395 119.469ZM393.945 96.1016C391.883 96.1016 390.234 96.7734 389 98.1172C387.781 99.4609 387.062 101.32 386.844 103.695H400.273C400.273 101.242 399.727 99.3672 398.633 98.0703C397.539 96.7578 395.977 96.1016 393.945 96.1016ZM422.82 92.8438C423.961 92.8438 424.984 92.9375 425.891 93.125L425.352 96.7344C424.289 96.5 423.352 96.3828 422.539 96.3828C420.461 96.3828 418.68 97.2266 417.195 98.9141C415.727 100.602 414.992 102.703 414.992 105.219V119H411.102V93.3125H414.312L414.758 98.0703H414.945C415.898 96.3984 417.047 95.1094 418.391 94.2031C419.734 93.2969 421.211 92.8438 422.82 92.8438Z" fill="#607D8B"/>
</g>
</g>
</svg>
